<?xml version="1.0" encoding="utf-8"?>
<!-- Generator: Adobe Illustrator 16.0.0, SVG Export Plug-In . SVG Version: 6.00 Build 0)  -->
<!DOCTYPE svg PUBLIC "-//W3C//DTD SVG 1.1//EN" "http://www.w3.org/Graphics/SVG/1.1/DTD/svg11.dtd">
<svg version="1.1" id="Layer_1" xmlns="http://www.w3.org/2000/svg" xmlns:xlink="http://www.w3.org/1999/xlink" x="0px" y="0px"
	 width="32px" height="20px" viewBox="0 0 32 20" enable-background="new 0 0 32 20" xml:space="preserve">
<g>
	<g>
		<g>
			<g>
				<rect x="-0.634" y="-0.428" fill="#FF3B45" width="33.268" height="20.857"/>
			</g>
		</g>
		<g>
			<rect x="7.751" y="-0.43" fill="#FFFFFF" width="16.59" height="20.854"/>
		</g>
	</g>
	<g>
		<polygon fill="#FF3B45" points="15.515,13.605 15.515,17.305 16.157,17.305 16.157,13.498 19.589,14.25 19.161,13.07 22.483,9.96 
			21.573,9.799 22.163,7.548 20.233,7.923 19.804,6.851 18.034,8.62 18.569,4.492 17.337,5.028 15.89,2.509 14.495,5.136 
			13.103,4.331 13.8,8.62 11.923,6.69 11.763,7.87 9.778,7.44 10.423,9.585 9.403,9.96 12.62,12.855 12.138,14.035 		"/>
	</g>
</g>
</svg>
