<?xml version="1.0" encoding="utf-8"?>
<!-- Generator: Adobe Illustrator 21.0.2, SVG Export Plug-In . SVG Version: 6.00 Build 0)  -->
<svg version="1.1" id="Layer_1" xmlns="http://www.w3.org/2000/svg" xmlns:xlink="http://www.w3.org/1999/xlink" x="0px" y="0px"
	 viewBox="0 0 72 72" style="enable-background:new 0 0 72 72;" xml:space="preserve">
<style type="text/css">
	.st0{fill:none;stroke:#009CDE;stroke-linecap:round;stroke-linejoin:round;stroke-miterlimit:10;}
	.st1{fill:#009CDE;}
</style>
<title>icon.Customer.72x72</title>
<g>
	<g>
		<path class="st0" d="M30.4,67.5"/>
	</g>
	<g>
		<path class="st1" d="M36.5,70.8h-1.7c-2.5,0-4.4-1.1-4.8-2.8c-2.6,0-15.2-0.8-19.9-16.2c-0.1-0.3,0.1-0.5,0.3-0.6
			c0.3-0.1,0.5,0.1,0.6,0.3C16,67.5,29.8,67,30.4,67c0.3,0,0.5,0.2,0.5,0.5c0.1,1.4,1.7,2.3,3.9,2.3h1.7c2.2,0,3.7-1,3.7-2.5V66
			c0-1.5-1.5-3-3.7-3h-1.7c-0.3,0-0.5-0.2-0.5-0.5s0.2-0.5,0.5-0.5h1.7c2.5,0,4.7,1.8,4.7,4v1.3C41.2,69.3,39.3,70.8,36.5,70.8z"/>
	</g>
	<g>
		<path class="st1" d="M9.7,52.2c-0.7,0-2-0.2-3.7-1.2c-2-1.2-2.5-3.9-2.6-5l-1-0.1C1,45.8,0,44.6,0,43.2v-5.1c0-1.4,1-2.6,2.4-2.7
			l1-0.1v-0.3c0-1.5,0.6-2.9,1.7-4C5.3,22.2,8,14.8,12.9,9.6c4.8-5,13.9-8.3,23.2-8.4c0.1,0,0.2,0,0.2,0c9.1,0,18.7,3.4,23.4,8.4
			c5.5,5.7,8.3,13.6,7.7,21.7c0.7,1,1.1,2.1,1.1,3.3v0.7l0.9,0.1c1.4,0.2,2.5,1.4,2.5,2.7v5.1c0,1.4-1,2.6-2.4,2.7L68.7,46
			c0,2.7-2.3,5.2-5.2,5.5L55.7,52c-1.1,0.1-2.1-0.3-2.9-1.1s-1.2-1.8-1.2-2.9l0.1-15.6c0-1.1,0.4-2.1,1.2-2.8
			c0.8-0.7,1.8-1.1,2.9-1.1l2.7,0.2c-0.1-4.8-0.2-7.8-3.8-11.5c-4-4.2-9.9-6.3-18.1-6.4c-7.9-0.1-14.3,2.1-18.3,6.4
			c-3.5,3.6-3.6,6.2-3.8,10.8c0,0.5-0.1,1-0.1,1.6c0,0.3-0.3,0.5-0.5,0.5c-0.3,0-0.5-0.3-0.5-0.5c0-0.5,0.1-1.1,0.1-1.6
			c0.2-4.7,0.4-7.5,4.1-11.4c4.3-4.5,10.9-6.8,19.1-6.7c8.3,0.1,14.6,2.4,18.8,6.7c4,4.2,4,7.5,4.1,12.6l0,0.2
			c0,0.1-0.1,0.3-0.2,0.4c-0.1,0.1-0.2,0.1-0.4,0.1l-3.2-0.2c-0.8,0-1.6,0.3-2.1,0.8c-0.6,0.6-0.9,1.3-0.9,2.1L52.5,48
			c0,0.8,0.3,1.6,0.9,2.1c0.6,0.6,1.4,0.8,2.2,0.8l7.8-0.4c2.4-0.3,4.2-2.3,4.2-4.6v-0.4c0-0.3,0.2-0.5,0.4-0.5l1.4-0.2
			c0.9-0.1,1.5-0.8,1.5-1.8v-5.1c0-0.9-0.7-1.6-1.6-1.8l-1.3-0.2c-0.2,0-0.4-0.2-0.4-0.5v-1.1c0-1-0.4-2-1-2.8
			c-0.1-0.1-0.1-0.2-0.1-0.3c0.6-7.9-2.1-15.6-7.5-21.2c-4.6-4.8-14-8.1-22.9-8.1c-8.9,0.1-17.9,3.3-22.5,8.1
			c-4.9,5.1-7.4,12.1-7.6,20.9c0,0.1-0.1,0.3-0.2,0.4c-1,0.9-1.6,2.1-1.6,3.4v0.7c0,0.3-0.2,0.5-0.4,0.5l-1.4,0.2
			c-1,0.1-1.5,1-1.5,1.8v5.1c0,0.8,0.5,1.6,1.5,1.8l1.4,0.2c0.2,0,0.4,0.2,0.4,0.5c0,0,0.1,3.4,2.1,4.5c2.1,1.2,3.5,1,3.5,1
			c0.3,0,0.5,0.1,0.6,0.4c0,0.3-0.1,0.5-0.4,0.6C10.1,52.1,10,52.2,9.7,52.2z"/>
	</g>
	<g>
		<path class="st1" d="M10.4,52.1c-0.3,0-0.5-0.2-0.5-0.5c0-0.3,0.2-0.5,0.5-0.5l5.3,0c0.9,0.1,1.7-0.2,2.3-0.8
			c0.5-0.5,0.9-1.2,0.9-2v-8.7c0-0.3,0.2-0.5,0.5-0.5s0.5,0.2,0.5,0.5v8.7c0,1-0.4,2-1.2,2.7c-0.8,0.7-1.9,1.1-3,1L10.4,52.1
			C10.4,52.1,10.4,52.1,10.4,52.1z"/>
	</g>
</g>
</svg>
