<?xml version="1.0" encoding="utf-8"?>
<!-- Generator: Adobe Illustrator 21.0.2, SVG Export Plug-In . SVG Version: 6.00 Build 0)  -->
<svg version="1.1" id="Layer_1" xmlns="http://www.w3.org/2000/svg" xmlns:xlink="http://www.w3.org/1999/xlink" x="0px" y="0px"
	 viewBox="0 0 72 72" style="enable-background:new 0 0 72 72;" xml:space="preserve">
<style type="text/css">
	.st0{fill:#009CDE;}
</style>
<title>icon.OnTheGo.72x72</title>
<g>
	<g>
		<path class="st0" d="M51.5,72c-0.1,0-0.3-0.1-0.4-0.1L25.8,46.5c-0.1-0.1-0.1-0.2-0.1-0.4s0.1-0.3,0.1-0.4L71.1,0.4
			c0.2-0.2,0.4-0.2,0.6-0.1C71.9,0.4,72,0.6,72,0.9L52,71.6c0,0.2-0.2,0.3-0.4,0.3C51.6,72,51.6,72,51.5,72z M26.8,46.1l24.4,24.4
			L70.5,2.4L26.8,46.1z"/>
	</g>
	<g>
		<path class="st0" d="M21.8,42.2c-0.1,0-0.3,0-0.4-0.1L0.1,20.8C0,20.7,0,20.5,0,20.4c0-0.2,0.2-0.3,0.3-0.4L71.1,0
			c0.2-0.1,0.5,0,0.6,0.2c0.1,0.2,0.1,0.5-0.1,0.6L22.1,42.1C22,42.2,21.9,42.2,21.8,42.2z M1.5,20.7l20.3,20.3L69.2,1.6L1.5,20.7z"
			/>
	</g>
	<g>
		<path class="st0" d="M26.1,69.7c-0.1,0-0.1,0-0.2,0c-0.2-0.1-0.3-0.3-0.3-0.5V46.1c0-0.2,0.1-0.4,0.3-0.5c0.2-0.1,0.4,0,0.5,0.1
			L38,57.3c0.2,0.2,0.2,0.5,0,0.7L26.5,69.5C26.4,69.6,26.2,69.7,26.1,69.7z M26.6,47.3V68l10.3-10.3L26.6,47.3z"/>
	</g>
</g>
</svg>
